# Blender 4.1.1
# www.blender.org
mtllib damageblock.mtl
o 立方体
v -0.300000 -0.300000 0.300000
v -0.300000 0.300000 0.300000
v -0.300000 -0.300000 -0.300000
v -0.300000 0.300000 -0.300000
v 0.300000 -0.300000 0.300000
v 0.300000 0.300000 0.300000
v 0.300000 -0.300000 -0.300000
v 0.300000 0.300000 -0.300000
v -0.300000 0.313885 0.300000
v -0.073885 0.540000 0.073885
v -0.073885 0.540000 -0.073885
v -0.300000 0.313885 -0.300000
v 0.073885 0.540000 -0.073885
v 0.300000 0.313885 -0.300000
v 0.073885 0.540000 0.073885
v 0.300000 0.313885 0.300000
v 0.314468 0.300000 -0.300000
v 0.540000 0.074468 -0.074468
v 0.540000 -0.074468 -0.074468
v 0.314468 -0.300000 -0.300000
v 0.540000 -0.074468 0.074468
v 0.314468 -0.300000 0.300000
v 0.314468 0.300000 0.300000
v 0.540000 0.074468 0.074468
v -0.540000 -0.069801 -0.069801
v -0.309801 -0.300000 -0.300000
v -0.309801 -0.300000 0.300000
v -0.540000 -0.069801 0.069801
v -0.309801 0.300000 0.300000
v -0.540000 0.069801 0.069801
v -0.309801 0.300000 -0.300000
v -0.540000 0.069801 -0.069801
v -0.300000 -0.322245 -0.300000
v -0.082245 -0.540000 -0.082245
v -0.082245 -0.540000 0.082245
v -0.300000 -0.322245 0.300000
v 0.300000 -0.322245 -0.300000
v 0.082245 -0.540000 -0.082245
v 0.300000 -0.322245 0.300000
v 0.082245 -0.540000 0.082245
v -0.300000 -0.300000 0.315649
v -0.078273 -0.078273 0.537376
v -0.078273 0.078273 0.537376
v -0.300000 0.300000 0.315649
v 0.300000 0.300000 0.315649
v 0.078273 0.078273 0.537376
v 0.078273 -0.078273 0.537376
v 0.300000 -0.300000 0.315649
v 0.300000 0.300000 -0.315638
v 0.115638 0.115638 -0.500000
v 0.115638 -0.115638 -0.500000
v 0.300000 -0.300000 -0.315638
v -0.115638 -0.115638 -0.500000
v -0.300000 -0.300000 -0.315638
v -0.115638 0.115638 -0.500000
v -0.300000 0.300000 -0.315638
vn -0.0000 -1.0000 -0.0000
vn 1.0000 -0.0000 -0.0000
vn -0.0000 -0.0000 1.0000
vn -0.0000 -0.0000 -1.0000
vn -1.0000 -0.0000 -0.0000
vn -0.0000 1.0000 -0.0000
vn -0.7071 0.7071 -0.0000
vn -0.0000 0.7071 -0.7071
vn 0.7071 0.7071 -0.0000
vn -0.0000 0.7071 0.7071
vn 0.7071 -0.0000 -0.7071
vn 0.7071 -0.7071 -0.0000
vn 0.7071 -0.0000 0.7071
vn -0.7071 -0.7071 -0.0000
vn -0.7071 -0.0000 0.7071
vn -0.7071 -0.0000 -0.7071
vn -0.0000 -0.7071 -0.7071
vn -0.0000 -0.7071 0.7071
vt 0.028778 0.033311
vt 0.028778 0.969983
vt 0.965450 0.974505
vt 0.028778 0.974505
vt 0.028778 0.979027
vt 0.028778 0.042355
vt 0.965450 0.033311
vt 0.965450 0.969983
vt 0.965450 0.042355
vt 0.965450 0.979027
vt 0.965450 0.033473
vt 0.965450 0.970145
vt 0.965450 0.037833
vt 0.028778 0.037833
vt 0.613368 0.389915
vt 0.380860 0.622423
vt 0.380860 0.389915
vt 0.028778 0.970145
vt 0.606081 0.392842
vt 0.388147 0.610776
vt 0.388147 0.392842
vt 0.625670 0.382459
vt 0.368882 0.639247
vt 0.368882 0.382459
vt 0.616979 0.390826
vt 0.969972 0.974505
vt 0.616979 0.621512
vt 0.386293 0.390826
vt 0.969972 0.037833
vt 0.386293 0.621512
vt 0.033300 0.037833
vt 0.033300 0.974505
vt 0.613368 0.622423
vt 0.028778 0.033473
vt 0.606081 0.610776
vt 0.028940 0.979189
vt 0.028940 0.042517
vt 0.965612 0.042517
vt 0.965612 0.979189
vt 0.625670 0.639247
vt 0.619307 0.388499
vt 0.374921 0.632884
vt 0.374921 0.388499
vt 0.619307 0.632884
vt 0.677638 0.321122
vt 0.316589 0.682171
vt 0.316590 0.321122
vt 0.677639 0.682171
vt 0.965450 0.042355
vt 0.033300 0.037833
s 0
usemtl マテリアル
f 3/1/1 52/2/1 7/2/1
f 6/3/2 48/4/2 5/4/2
f 1/5/3 39/6/3 5/6/3
f 4/7/4 14/8/4 8/8/4
f 6/9/3 9/10/3 2/10/3
f 2/11/5 12/12/5 4/12/5
f 8/13/2 16/3/2 6/3/2
f 6/3/6 17/13/6 8/13/6
f 5/4/3 23/3/3 6/3/3
f 7/14/1 22/4/1 5/4/1
f 18/15/2 21/16/2 19/17/2
f 3/18/4 31/12/4 4/12/4
f 30/19/5 25/20/5 28/21/5
f 2/10/3 27/5/3 1/5/3
f 4/12/6 29/11/6 2/11/6
f 7/2/4 33/1/4 3/1/4
f 38/22/1 35/23/1 34/24/1
f 5/4/2 37/14/2 7/14/2
f 11/25/7 9/26/7 10/27/7
f 13/28/8 12/29/8 11/25/8
f 15/30/9 14/31/9 13/28/9
f 10/27/10 16/32/10 15/30/10
f 11/25/6 15/30/6 13/28/6
f 19/17/11 17/13/11 18/15/11
f 20/14/12 21/16/12 22/4/12
f 23/3/9 18/15/9 17/13/9
f 22/4/13 24/33/13 23/3/13
f 8/8/4 20/2/4 7/2/4
f 27/34/14 25/20/14 26/18/14
f 29/11/15 28/21/15 27/34/15
f 31/12/7 30/19/7 29/11/7
f 26/18/16 32/35/16 31/12/16
f 1/36/1 26/37/1 3/37/1
f 35/23/14 33/37/14 34/24/14
f 34/24/17 37/38/17 38/22/17
f 38/22/12 39/39/12 40/40/12
f 40/40/18 36/36/18 35/23/18
f 3/37/5 36/36/5 1/36/5
f 5/6/1 41/5/1 1/5/1
f 7/2/2 49/8/2 8/8/2
f 46/41/3 42/42/3 47/43/3
f 2/10/6 45/9/6 6/9/6
f 43/44/15 41/5/15 42/42/15
f 47/43/13 45/9/13 46/41/13
f 48/6/18 42/42/18 41/5/18
f 44/10/10 46/41/10 45/9/10
f 1/5/5 44/10/5 2/10/5
f 4/12/5 54/18/5 3/18/5
f 55/45/4 51/46/4 53/47/4
f 49/8/8 55/45/8 56/7/8
f 52/2/11 50/48/11 49/8/11
f 54/1/17 51/46/17 52/2/17
f 53/47/16 56/7/16 55/45/16
f 8/8/6 56/7/6 4/7/6
f 3/1/1 54/1/1 52/2/1
f 6/3/2 45/3/2 48/4/2
f 1/5/3 36/5/3 39/6/3
f 4/7/4 12/7/4 14/8/4
f 6/9/3 16/49/3 9/10/3
f 2/11/5 9/11/5 12/12/5
f 8/13/2 14/13/2 16/3/2
f 6/3/6 23/3/6 17/13/6
f 5/4/3 22/4/3 23/3/3
f 7/14/1 20/14/1 22/4/1
f 18/15/2 24/33/2 21/16/2
f 3/18/4 26/18/4 31/12/4
f 30/19/5 32/35/5 25/20/5
f 2/10/3 29/10/3 27/5/3
f 4/12/6 31/12/6 29/11/6
f 7/2/4 37/2/4 33/1/4
f 38/22/1 40/40/1 35/23/1
f 5/4/2 39/4/2 37/14/2
f 11/25/7 12/29/7 9/26/7
f 13/28/8 14/50/8 12/29/8
f 15/30/9 16/32/9 14/31/9
f 10/27/10 9/26/10 16/32/10
f 11/25/6 10/27/6 15/30/6
f 19/17/11 20/14/11 17/13/11
f 20/14/12 19/17/12 21/16/12
f 23/3/9 24/33/9 18/15/9
f 22/4/13 21/16/13 24/33/13
f 8/8/4 17/8/4 20/2/4
f 27/34/14 28/21/14 25/20/14
f 29/11/15 30/19/15 28/21/15
f 31/12/7 32/35/7 30/19/7
f 26/18/16 25/20/16 32/35/16
f 1/36/1 27/36/1 26/37/1
f 35/23/14 36/36/14 33/37/14
f 34/24/17 33/37/17 37/38/17
f 38/22/12 37/38/12 39/39/12
f 40/40/18 39/39/18 36/36/18
f 3/37/5 33/37/5 36/36/5
f 5/6/1 48/6/1 41/5/1
f 7/2/2 52/2/2 49/8/2
f 46/41/3 43/44/3 42/42/3
f 2/10/6 44/10/6 45/9/6
f 43/44/15 44/10/15 41/5/15
f 47/43/13 48/6/13 45/9/13
f 48/6/18 47/43/18 42/42/18
f 44/10/10 43/44/10 46/41/10
f 1/5/5 41/5/5 44/10/5
f 4/12/5 56/12/5 54/18/5
f 55/45/4 50/48/4 51/46/4
f 49/8/8 50/48/8 55/45/8
f 52/2/11 51/46/11 50/48/11
f 54/1/17 53/47/17 51/46/17
f 53/47/16 54/1/16 56/7/16
f 8/8/6 49/8/6 56/7/6
