# Blender 4.1.1
# www.blender.org
mtllib goal.mtl
o Cube
v 0.500000 0.500000 -0.500000
v 0.500000 -0.500000 -0.500000
v 0.500000 0.500000 0.500000
v 0.500000 -0.500000 0.500000
v -0.500000 0.500000 -0.500000
v -0.500000 -0.500000 -0.500000
v -0.500000 0.500000 0.500000
v -0.500000 -0.500000 0.500000
vn -0.0000 1.0000 -0.0000
vn -0.0000 -0.0000 1.0000
vn -1.0000 -0.0000 -0.0000
vn -0.0000 -1.0000 -0.0000
vn 1.0000 -0.0000 -0.0000
vn -0.0000 -0.0000 -1.0000
vt 0.418546 0.333931
vt 0.082090 0.662592
vt 0.082090 0.333931
vt 0.420741 0.330506
vt 0.081237 0.666805
vt 0.081237 0.330506
vt 0.419986 0.326346
vt 0.083056 0.663277
vt 0.083056 0.326346
vt 0.423359 0.331886
vt 0.084219 0.671026
vt 0.084219 0.331886
vt 0.420370 0.332607
vt 0.082673 0.670304
vt 0.082673 0.332607
vt 0.423045 0.326343
vt 0.084256 0.665132
vt 0.084256 0.326343
vt 0.418546 0.662592
vt 0.420741 0.666805
vt 0.419986 0.663277
vt 0.423359 0.671026
vt 0.420370 0.670304
vt 0.423045 0.665132
s 0
usemtl Material.002
f 5/1/1 3/2/1 1/3/1
f 3/4/2 8/5/2 4/6/2
f 7/7/3 6/8/3 8/9/3
f 2/10/4 8/11/4 6/12/4
f 1/13/5 4/14/5 2/15/5
f 5/16/6 2/17/6 6/18/6
f 5/1/1 7/19/1 3/2/1
f 3/4/2 7/20/2 8/5/2
f 7/7/3 5/21/3 6/8/3
f 2/10/4 4/22/4 8/11/4
f 1/13/5 3/23/5 4/14/5
f 5/16/6 1/24/6 2/17/6
