# Blender 4.1.1
# www.blender.org
mtllib gool.mtl
o 円柱
v 0.000000 -0.059197 -0.091143
v 0.000000 2.195402 -0.091143
v 0.017781 -0.059197 -0.089392
v 0.017781 2.195402 -0.089392
v 0.034879 -0.059197 -0.084206
v 0.034879 2.195402 -0.084206
v 0.050637 -0.059197 -0.075783
v 0.050637 2.195402 -0.075783
v 0.064448 -0.059197 -0.064448
v 0.064448 2.195402 -0.064448
v 0.075783 -0.059197 -0.050637
v 0.075783 2.195402 -0.050637
v 0.084206 -0.059197 -0.034879
v 0.084206 2.195402 -0.034879
v 0.089392 -0.059197 -0.017781
v 0.089392 2.195402 -0.017781
v 0.091143 -0.059197 0.000000
v 0.091143 2.195402 0.000000
v 0.089392 -0.059197 0.017781
v 0.089392 2.195402 0.017781
v 0.084206 -0.059197 0.034879
v 0.084206 2.195402 0.034879
v 0.075783 -0.059197 0.050637
v 0.075783 2.195402 0.050637
v 0.064448 -0.059197 0.064448
v 0.064448 2.195402 0.064448
v 0.050637 -0.059197 0.075783
v 0.050637 2.195402 0.075783
v 0.034879 -0.059197 0.084206
v 0.034879 2.195402 0.084206
v 0.017781 -0.059197 0.089392
v 0.017781 2.195402 0.089392
v 0.000000 -0.059197 0.091143
v 0.000000 2.195402 0.091143
v -0.017781 -0.059197 0.089392
v -0.017781 2.195402 0.089392
v -0.034879 -0.059197 0.084206
v -0.034879 2.195402 0.084206
v -0.050637 -0.059197 0.075783
v -0.050637 2.195402 0.075783
v -0.064448 -0.059197 0.064448
v -0.064448 2.195402 0.064448
v -0.075783 -0.059197 0.050637
v -0.075783 2.195402 0.050637
v -0.084206 -0.059197 0.034879
v -0.084206 2.195402 0.034879
v -0.089392 -0.059197 0.017781
v -0.089392 2.195402 0.017781
v -0.091143 -0.059197 0.000000
v -0.091143 2.195402 0.000000
v -0.089392 -0.059197 -0.017781
v -0.089392 2.195402 -0.017781
v -0.084206 -0.059197 -0.034879
v -0.084206 2.195402 -0.034879
v -0.075783 -0.059197 -0.050637
v -0.075783 2.195402 -0.050637
v -0.064448 -0.059197 -0.064448
v -0.064448 2.195402 -0.064448
v -0.050637 -0.059197 -0.075783
v -0.050637 2.195402 -0.075783
v -0.034879 -0.059197 -0.084206
v -0.034879 2.195402 -0.084206
v -0.017781 -0.059197 -0.089392
v -0.017781 2.195402 -0.089392
v -0.101356 2.181540 0.123096
v -0.101356 3.181541 0.123096
v -0.101356 2.181540 -1.354836
v -0.101356 3.181541 -1.354836
v 0.101356 2.181540 0.123096
v 0.101356 3.181541 0.123096
v 0.101356 2.181540 -1.354836
v 0.101356 3.181541 -1.354836
vn 0.0980 -0.0000 -0.9952
vn 0.2903 -0.0000 -0.9569
vn 0.4714 -0.0000 -0.8819
vn 0.6344 -0.0000 -0.7730
vn 0.7730 -0.0000 -0.6344
vn 0.8819 -0.0000 -0.4714
vn 0.9569 -0.0000 -0.2903
vn 0.9952 -0.0000 -0.0980
vn 0.9952 -0.0000 0.0980
vn 0.9569 -0.0000 0.2903
vn 0.8819 -0.0000 0.4714
vn 0.7730 -0.0000 0.6344
vn 0.6344 -0.0000 0.7730
vn 0.4714 -0.0000 0.8819
vn 0.2903 -0.0000 0.9569
vn 0.0980 -0.0000 0.9952
vn -0.0980 -0.0000 0.9952
vn -0.2903 -0.0000 0.9569
vn -0.4714 -0.0000 0.8819
vn -0.6344 -0.0000 0.7730
vn -0.7730 -0.0000 0.6344
vn -0.8819 -0.0000 0.4714
vn -0.9569 -0.0000 0.2903
vn -0.9952 -0.0000 0.0980
vn -0.9952 -0.0000 -0.0980
vn -0.9569 -0.0000 -0.2903
vn -0.8819 -0.0000 -0.4714
vn -0.7730 -0.0000 -0.6344
vn -0.6344 -0.0000 -0.7730
vn -0.4714 -0.0000 -0.8819
vn -0.0000 1.0000 -0.0000
vn -0.2903 -0.0000 -0.9569
vn -0.0980 -0.0000 -0.9952
vn -0.0000 -1.0000 -0.0000
vn -1.0000 -0.0000 -0.0000
vn -0.0000 -0.0000 -1.0000
vn 1.0000 -0.0000 -0.0000
vn -0.0000 -0.0000 1.0000
vt 0.854600 0.026421
vt 0.516465 0.047554
vt 0.516465 0.026421
vt 0.854600 0.047554
vt 0.516465 0.068688
vt 0.854600 0.068688
vt 0.516465 0.089821
vt 0.854600 0.089821
vt 0.516465 0.110955
vt 0.854600 0.110955
vt 0.516465 0.132088
vt 0.854600 0.132088
vt 0.516465 0.153222
vt 0.854600 0.153222
vt 0.516465 0.174355
vt 0.854600 0.174355
vt 0.516465 0.195488
vt 0.854600 0.195488
vt 0.516465 0.216622
vt 0.854600 0.216622
vt 0.516465 0.237755
vt 0.854600 0.237755
vt 0.516465 0.258889
vt 0.854600 0.258889
vt 0.516465 0.280022
vt 0.854600 0.280022
vt 0.516465 0.301156
vt 0.854600 0.301156
vt 0.516465 0.322289
vt 0.854600 0.322289
vt 0.516465 0.343422
vt 0.854600 0.343422
vt 0.516465 0.364556
vt 0.854600 0.364556
vt 0.516465 0.385689
vt 0.854600 0.385689
vt 0.516465 0.406823
vt 0.854600 0.406823
vt 0.516465 0.427956
vt 0.854600 0.427956
vt 0.516465 0.449089
vt 0.854600 0.449089
vt 0.516465 0.470223
vt 0.854600 0.470223
vt 0.516465 0.491356
vt 0.854600 0.491356
vt 0.516465 0.512490
vt 0.854600 0.512490
vt 0.516465 0.533623
vt 0.854600 0.533623
vt 0.516465 0.554757
vt 0.854600 0.554757
vt 0.516465 0.575890
vt 0.854600 0.575890
vt 0.516465 0.597023
vt 0.854600 0.597023
vt 0.516465 0.618157
vt 0.854600 0.618157
vt 0.516465 0.639290
vt 0.854600 0.639290
vt 0.516465 0.660424
vt 0.578871 0.721196
vt 0.781301 0.612995
vt 0.889503 0.815425
vt 0.854600 0.660424
vt 0.516465 0.681557
vt 0.854600 0.681557
vt 0.516465 0.702691
vt 0.931663 0.822397
vt 0.754231 0.676783
vt 0.608616 0.854214
vt 0.324809 0.054160
vt 0.182736 0.196233
vt 0.182736 0.054160
vt 0.324809 0.196233
vt 0.182736 0.338306
vt 0.324809 0.338306
vt 0.182736 0.480379
vt 0.324809 0.480379
vt 0.182736 0.622452
vt 0.040663 0.480379
vt 0.040663 0.338306
vt 0.466881 0.338306
vt 0.877327 0.844821
vt 0.859650 0.871276
vt 0.837152 0.893774
vt 0.810697 0.911451
vt 0.781301 0.923627
vt 0.750095 0.929834
vt 0.718278 0.929834
vt 0.687072 0.923627
vt 0.657677 0.911451
vt 0.631222 0.893774
vt 0.608724 0.871276
vt 0.591047 0.844821
vt 0.578871 0.815425
vt 0.572664 0.784219
vt 0.572664 0.752402
vt 0.591047 0.691801
vt 0.657677 0.625171
vt 0.608724 0.665346
vt 0.631222 0.642848
vt 0.687072 0.612995
vt 0.718278 0.606788
vt 0.750095 0.606788
vt 0.810697 0.625171
vt 0.877327 0.691801
vt 0.837152 0.642848
vt 0.859650 0.665346
vt 0.889503 0.721196
vt 0.895710 0.752402
vt 0.895710 0.784220
vt 0.854600 0.702691
vt 0.614824 0.885420
vt 0.627000 0.914816
vt 0.644676 0.941271
vt 0.667175 0.963769
vt 0.693630 0.981446
vt 0.723025 0.993622
vt 0.754231 0.999829
vt 0.786048 0.999829
vt 0.817254 0.993622
vt 0.846649 0.981446
vt 0.873105 0.963769
vt 0.895603 0.941271
vt 0.913280 0.914816
vt 0.925455 0.885420
vt 0.931663 0.854214
vt 0.925455 0.791191
vt 0.913280 0.761796
vt 0.895603 0.735341
vt 0.873105 0.712843
vt 0.846649 0.695166
vt 0.817254 0.682990
vt 0.786048 0.676783
vt 0.723025 0.682990
vt 0.693630 0.695166
vt 0.667175 0.712843
vt 0.644676 0.735341
vt 0.627000 0.761796
vt 0.614824 0.791191
vt 0.608616 0.822397
vt 0.324809 0.622452
vt 0.466881 0.480379
s 0
usemtl マテリアル
f 2/1/1 3/2/1 1/3/1
f 4/4/2 5/5/2 3/2/2
f 6/6/3 7/7/3 5/5/3
f 8/8/4 9/9/4 7/7/4
f 10/10/5 11/11/5 9/9/5
f 12/12/6 13/13/6 11/11/6
f 14/14/7 15/15/7 13/13/7
f 16/16/8 17/17/8 15/15/8
f 18/18/9 19/19/9 17/17/9
f 20/20/10 21/21/10 19/19/10
f 22/22/11 23/23/11 21/21/11
f 24/24/12 25/25/12 23/23/12
f 26/26/13 27/27/13 25/25/13
f 28/28/14 29/29/14 27/27/14
f 30/30/15 31/31/15 29/29/15
f 32/32/16 33/33/16 31/31/16
f 34/34/17 35/35/17 33/33/17
f 36/36/18 37/37/18 35/35/18
f 38/38/19 39/39/19 37/37/19
f 40/40/20 41/41/20 39/39/20
f 42/42/21 43/43/21 41/41/21
f 44/44/22 45/45/22 43/43/22
f 46/46/23 47/47/23 45/45/23
f 48/48/24 49/49/24 47/47/24
f 50/50/25 51/51/25 49/49/25
f 52/52/26 53/53/26 51/51/26
f 54/54/27 55/55/27 53/53/27
f 56/56/28 57/57/28 55/55/28
f 58/58/29 59/59/29 57/57/29
f 60/60/30 61/61/30 59/59/30
f 38/62/31 22/63/31 6/64/31
f 62/65/32 63/66/32 61/61/32
f 64/67/33 1/68/33 63/66/33
f 31/69/34 47/70/34 63/71/34
f 2/1/1 4/4/1 3/2/1
f 4/4/2 6/6/2 5/5/2
f 6/6/3 8/8/3 7/7/3
f 8/8/4 10/10/4 9/9/4
f 10/10/5 12/12/5 11/11/5
f 12/12/6 14/14/6 13/13/6
f 14/14/7 16/16/7 15/15/7
f 16/16/8 18/18/8 17/17/8
f 18/18/9 20/20/9 19/19/9
f 20/20/10 22/22/10 21/21/10
f 22/22/11 24/24/11 23/23/11
f 24/24/12 26/26/12 25/25/12
f 26/26/13 28/28/13 27/27/13
f 28/28/14 30/30/14 29/29/14
f 30/30/15 32/32/15 31/31/15
f 32/32/16 34/34/16 33/33/16
f 34/34/17 36/36/17 35/35/17
f 36/36/18 38/38/18 37/37/18
f 38/38/19 40/40/19 39/39/19
f 40/40/20 42/42/20 41/41/20
f 42/42/21 44/44/21 43/43/21
f 44/44/22 46/46/22 45/45/22
f 46/46/23 48/48/23 47/47/23
f 48/48/24 50/50/24 49/49/24
f 50/50/25 52/52/25 51/51/25
f 52/52/26 54/54/26 53/53/26
f 54/54/27 56/56/27 55/55/27
f 56/56/28 58/58/28 57/57/28
f 58/58/29 60/60/29 59/59/29
f 60/60/30 62/65/30 61/61/30
f 6/64/31 4/84/31 2/85/31
f 2/85/31 64/86/31 6/64/31
f 64/86/31 62/87/31 6/64/31
f 62/87/31 60/88/31 58/89/31
f 58/89/31 56/90/31 54/91/31
f 54/91/31 52/92/31 50/93/31
f 50/93/31 48/94/31 54/91/31
f 48/94/31 46/95/31 54/91/31
f 46/95/31 44/96/31 42/97/31
f 42/97/31 40/98/31 38/62/31
f 38/62/31 36/99/31 30/100/31
f 36/99/31 34/101/31 30/100/31
f 34/101/31 32/102/31 30/100/31
f 30/100/31 28/103/31 26/104/31
f 26/104/31 24/105/31 22/63/31
f 22/63/31 20/106/31 14/107/31
f 20/106/31 18/108/31 14/107/31
f 18/108/31 16/109/31 14/107/31
f 14/107/31 12/110/31 10/111/31
f 10/111/31 8/112/31 6/64/31
f 62/87/31 58/89/31 6/64/31
f 58/89/31 54/91/31 6/64/31
f 46/95/31 42/97/31 54/91/31
f 42/97/31 38/62/31 54/91/31
f 30/100/31 26/104/31 38/62/31
f 26/104/31 22/63/31 38/62/31
f 14/107/31 10/111/31 22/63/31
f 10/111/31 6/64/31 22/63/31
f 6/64/31 54/91/31 38/62/31
f 62/65/32 64/67/32 63/66/32
f 64/67/33 2/113/33 1/68/33
f 63/71/34 1/114/34 3/115/34
f 3/115/34 5/116/34 7/117/34
f 7/117/34 9/118/34 11/119/34
f 11/119/34 13/120/34 15/121/34
f 15/121/34 17/122/34 19/123/34
f 19/123/34 21/124/34 23/125/34
f 23/125/34 25/126/34 27/127/34
f 27/127/34 29/128/34 31/69/34
f 31/69/34 33/129/34 35/130/34
f 35/130/34 37/131/34 39/132/34
f 39/132/34 41/133/34 43/134/34
f 43/134/34 45/135/34 47/70/34
f 47/70/34 49/136/34 51/137/34
f 51/137/34 53/138/34 55/139/34
f 55/139/34 57/140/34 59/141/34
f 59/141/34 61/142/34 63/71/34
f 63/71/34 3/115/34 15/121/34
f 3/115/34 7/117/34 15/121/34
f 7/117/34 11/119/34 15/121/34
f 15/121/34 19/123/34 31/69/34
f 19/123/34 23/125/34 31/69/34
f 23/125/34 27/127/34 31/69/34
f 31/69/34 35/130/34 47/70/34
f 35/130/34 39/132/34 47/70/34
f 39/132/34 43/134/34 47/70/34
f 47/70/34 51/137/34 63/71/34
f 51/137/34 55/139/34 63/71/34
f 55/139/34 59/141/34 63/71/34
f 63/71/34 15/121/34 31/69/34
usemtl マテリアル.001
f 66/72/35 67/73/35 65/74/35
f 68/75/36 71/76/36 67/73/36
f 72/77/37 69/78/37 71/76/37
f 70/79/38 65/80/38 69/78/38
f 71/76/34 65/81/34 67/82/34
f 68/83/31 70/79/31 72/77/31
f 66/72/35 68/75/35 67/73/35
f 68/75/36 72/77/36 71/76/36
f 72/77/37 70/79/37 69/78/37
f 70/79/38 66/143/38 65/80/38
f 71/76/34 69/78/34 65/81/34
f 68/83/31 66/144/31 70/79/31
