# Blender 4.1.1
# www.blender.org
mtllib needle_Body.mtl
o 立方体
v -0.523568 0.697780 0.523568
v -0.523568 1.359955 0.523568
v -0.523568 0.697780 -0.523568
v -0.523568 1.359955 -0.523568
v 0.523568 0.697780 0.523568
v 0.523568 1.359955 0.523568
v 0.523568 0.697780 -0.523568
v 0.523568 1.359955 -0.523568
v -0.523568 0.697780 0.000000
v -0.523568 1.359955 0.000000
v 0.523568 0.697780 0.000000
v 0.523568 1.359955 0.000000
v 0.000000 0.697780 -0.640895
v 0.000000 1.359955 -0.640895
v 0.000000 0.697780 0.756979
v 0.000000 1.359955 0.756979
v 0.000000 1.745896 0.000000
v 0.000000 0.697780 0.000000
v -0.523568 1.028868 0.523568
v -0.523568 1.028868 -0.523568
v 0.523568 1.028868 -0.523568
v 0.523568 1.028868 0.523568
v 0.523568 1.028868 0.000000
v -0.523568 1.028868 0.000000
v 0.000000 1.028868 0.756979
v 0.000000 1.028868 -0.640895
v -0.523568 0.863324 -0.523568
v 0.523568 0.863324 -0.523568
v 0.523568 0.863324 0.523568
v 0.523568 0.863324 0.000000
v -0.523568 0.863324 0.000000
v 0.000000 0.863324 0.756979
v 0.000000 0.863324 -0.640895
v -0.523568 0.863324 0.523568
v -0.523568 1.194411 -0.523568
v 0.523568 1.194411 -0.523568
v 0.000000 1.194411 -0.640895
v -0.523568 0.780552 -0.523568
v 0.523568 0.780552 -0.523568
v 0.523568 0.780552 0.523568
v 0.523568 0.780552 0.000000
v -0.523568 0.780552 0.000000
v 0.000000 0.780552 0.756979
v 0.000000 0.780552 -0.640895
v -0.523568 0.780552 0.523568
v -0.523568 1.277183 -0.523568
v 0.523568 1.277183 -0.523568
v 0.000000 1.277183 -0.640895
v -0.523568 0.739166 -0.523568
v 0.523568 0.739166 -0.523568
v 0.523568 0.739166 0.523568
v 0.523568 0.739166 0.000000
v -0.523568 0.739166 0.000000
v 0.000000 0.739166 0.756979
v 0.000000 0.739166 -0.640895
v -0.523568 0.739166 0.523568
v -0.599332 0.739166 0.572743
v -0.599332 0.780552 0.572743
v -0.594074 0.780552 -0.580023
v 0.000000 0.780552 -0.731219
v 0.599332 0.780552 0.572743
v 0.000000 0.780552 0.847303
v -0.613892 0.780552 0.000000
v 0.594074 0.780552 -0.580023
v 0.613892 0.780552 0.000000
v -0.594074 0.739166 -0.580023
v 0.594074 0.739166 -0.580023
v 0.599332 0.739166 0.572743
v 0.613892 0.739166 0.000000
v -0.613892 0.739166 0.000000
v 0.000000 0.739166 0.847303
v 0.000000 0.739166 -0.731219
v 0.558108 1.277183 -0.677699
v 0.558108 1.194411 -0.677699
v 0.034540 1.277183 -0.795027
v 0.034540 1.194411 -0.795027
v -0.555287 1.277183 -0.665114
v -0.555287 1.194411 -0.665114
v -0.031719 1.277183 -0.782441
v -0.031719 1.194411 -0.782441
v -0.261784 1.552925 -0.261784
v -0.620253 0.759859 0.592293
v -0.614812 0.759859 -0.600713
v 0.614812 0.759859 -0.600713
v 0.620253 0.759859 0.592293
v 0.635321 0.759859 -0.000443
v -0.635321 0.759859 -0.000443
v 0.000000 0.759859 0.876437
v 0.000000 0.759859 -0.757187
v 0.558108 1.235797 -0.713787
v 0.034540 1.235797 -0.831114
v -0.555287 1.235797 -0.707870
v -0.031719 1.235797 -0.825197
vn 0.2187 -0.0000 -0.9758
vn -0.0000 -1.0000 -0.0000
vn -0.1985 0.8732 0.4452
vn -0.1148 0.8510 -0.5125
vn -1.0000 -0.0000 -0.0000
vn 0.5934 0.8049 -0.0000
vn 0.4072 -0.0000 0.9133
vn -0.2187 -0.0000 -0.9758
vn 0.1985 0.8732 0.4452
vn 0.1148 0.8510 -0.5125
vn -0.5934 0.8049 -0.0000
vn 1.0000 -0.0000 -0.0000
vn -0.4072 -0.0000 0.9133
vn -0.0000 1.0000 -0.0000
vn -0.9758 -0.0000 -0.2187
vn -0.1566 0.7724 -0.6155
vn 0.2564 0.7880 0.5597
vn -0.6947 0.7191 0.0177
vn 0.6942 0.7194 -0.0237
vn -0.2564 0.7880 0.5597
vn 0.6947 0.7191 0.0177
vn 0.1566 0.7724 -0.6155
vn -0.6942 0.7194 -0.0237
vn 0.1665 0.6480 -0.7432
vn -0.9758 -0.0000 0.2187
vn -0.1540 0.7100 -0.6872
vn -0.6942 -0.7194 -0.0237
vn 0.1567 -0.7724 -0.6155
vn 0.6947 -0.7191 0.0177
vn -0.2564 -0.7880 0.5597
vn 0.6942 -0.7194 -0.0237
vn -0.6947 -0.7191 0.0177
vn 0.2564 -0.7880 0.5597
vn -0.1567 -0.7724 -0.6155
vn -0.1540 -0.7100 -0.6872
vn 0.1665 -0.6480 -0.7432
vn 0.9758 -0.0000 -0.2187
vn 0.9758 -0.0000 0.2187
vn 0.1566 -0.7724 -0.6155
vn -0.1566 -0.7724 -0.6155
vt 0.440833 0.654620
vt 0.390117 0.554035
vt 0.456782 0.636484
vt 0.580910 0.222132
vt 0.411133 0.212971
vt 0.465004 0.092626
vt 0.199208 0.568482
vt 0.030504 0.571433
vt 0.081037 0.445219
vt 0.303628 0.680998
vt 0.198299 0.639931
vt 0.570267 0.391660
vt 0.678318 0.332268
vt 0.592306 0.804330
vt 0.541938 0.702807
vt 0.566695 0.683234
vt 0.750522 0.232283
vt 0.670664 0.142282
vt 0.368449 0.572175
vt 0.292747 0.481425
vt 0.221470 0.438572
vt 0.590562 0.052435
vt 0.220623 0.211078
vt 0.333623 0.332864
vt 0.525572 0.719990
vt 0.104215 0.667956
vt 0.609486 0.651784
vt 0.582621 0.535155
vt 0.651849 0.618639
vt 0.252750 0.181509
vt 0.341431 0.277256
vt 0.742752 0.822112
vt 0.719319 0.705538
vt 0.784703 0.788674
vt 0.461746 0.492658
vt 0.422340 0.365651
vt 0.503555 0.452198
vt 0.162859 0.084828
vt 0.378735 0.405899
vt 0.544537 0.571647
vt 0.676484 0.738282
vt 0.672212 0.601750
vt 0.739098 0.690232
vt 0.524506 0.432366
vt 0.601159 0.517950
vt 0.362105 0.257474
vt 0.442652 0.346630
vt 0.184884 0.064322
vt 0.274722 0.161032
vt 0.805385 0.772152
vt 0.658638 0.888444
vt 0.512880 0.607948
vt 0.707042 0.573489
vt 0.765413 0.669614
vt 0.695405 0.582987
vt 0.752603 0.679761
vt 0.823799 0.770204
vt 0.624777 0.497108
vt 0.635954 0.487378
vt 0.286702 0.150154
vt 0.375136 0.245711
vt 0.400146 0.223050
vt 0.301288 0.137009
vt 0.313339 0.126227
vt 0.612139 0.508157
vt 0.683791 0.592425
vt 0.842726 0.743116
vt 0.778711 0.658855
vt 0.447032 0.595031
vt 0.107983 0.315109
vt 0.106603 0.088346
vt 0.717581 0.564578
vt 0.789307 0.650364
vt 0.645557 0.479036
vt 0.481548 0.310753
vt 0.491730 0.301570
vt 0.237335 0.018046
vt 0.323617 0.116919
vt 0.559759 0.400973
vt 0.853319 0.735114
vt 0.618442 0.502623
vt 0.689261 0.587310
vt 0.380514 0.239543
vt 0.293986 0.143570
vt 0.758961 0.674630
vt 0.832476 0.768349
vt 0.536177 0.421889
vt 0.462069 0.328654
vt 0.542418 0.417048
vt 0.196158 0.034531
vt 0.455349 0.334727
vt 0.547936 0.411393
vt 0.468692 0.322471
vt 0.387179 0.234795
vt 0.227228 0.026770
vt 0.205347 0.029867
vt 0.432156 0.566702
vt 0.449303 0.589305
vt 0.535898 0.680153
vt 0.433913 0.561377
vt 0.426266 0.533569
vt 0.537216 0.674206
vt 0.512954 0.655680
vt 0.518268 0.654027
vt 0.542752 0.672725
vt 0.519979 0.648436
vt 0.836361 0.760397
vt 0.454517 0.587757
vt 0.197947 0.738028
vt -0.005686 0.192166
vt 0.190496 0.043117
vt 0.427190 0.567999
s 0
usemtl マテリアル.001
f 14/1/1 47/2/1 48/3/1
f 18/4/2 5/5/2 15/6/2
f 17/7/3 2/8/3 16/9/3
f 14/10/4 81/11/4 17/7/4
f 7/12/2 18/4/2 13/13/2
f 10/14/5 46/15/5 35/16/5
f 3/17/2 18/4/2 9/18/2
f 8/19/6 17/7/6 12/20/6
f 12/20/6 17/7/6 6/21/6
f 18/4/2 1/22/2 9/18/2
f 6/21/7 25/23/7 22/24/7
f 4/25/8 48/3/8 46/15/8
f 6/21/9 17/7/9 16/9/9
f 17/7/10 8/19/10 14/10/10
f 2/8/11 17/7/11 10/26/11
f 81/11/11 10/26/11 17/7/11
f 20/27/8 33/28/8 27/29/8
f 22/24/7 32/30/7 29/31/7
f 19/32/5 31/33/5 34/34/5
f 21/35/12 30/36/12 28/37/12
f 25/23/13 34/38/13 32/30/13
f 23/39/12 29/31/12 30/36/12
f 26/40/1 28/37/1 33/28/1
f 24/41/5 27/29/5 31/33/5
f 31/33/5 38/42/5 42/43/5
f 33/28/1 39/44/1 44/45/1
f 30/36/12 40/46/12 41/47/12
f 32/30/13 45/48/13 43/49/13
f 28/37/12 41/47/12 39/44/12
f 34/34/5 42/43/5 45/50/5
f 29/31/7 43/49/7 40/46/7
f 27/29/8 44/45/8 38/42/8
f 35/16/8 26/40/8 20/27/8
f 10/14/5 19/32/5 2/51/5
f 12/20/12 22/24/12 23/39/12
f 37/52/1 21/35/1 26/40/1
f 49/53/2 70/54/2 66/55/2
f 45/50/14 63/56/14 58/57/14
f 49/53/2 72/58/2 55/59/2
f 40/46/14 62/60/14 61/61/14
f 51/62/2 71/63/2 54/64/2
f 38/42/14 60/65/14 59/66/14
f 56/67/2 70/54/2 53/68/2
f 38/42/14 63/56/14 42/43/14
f 37/52/15 48/3/15 75/69/15
f 16/70/13 19/71/13 25/23/13
f 53/68/5 3/72/5 9/73/5
f 55/59/1 7/12/1 13/74/1
f 52/75/12 5/5/12 11/76/12
f 54/64/13 1/77/13 15/78/13
f 50/79/12 11/76/12 7/12/12
f 56/67/5 9/73/5 1/80/5
f 51/62/7 15/78/7 5/5/7
f 49/53/8 13/74/8 3/72/8
f 59/66/16 89/81/16 83/82/16
f 85/83/17 62/60/17 88/84/17
f 58/57/18 87/85/18 82/86/18
f 64/87/19 86/88/19 84/89/19
f 62/60/20 82/90/20 88/84/20
f 86/88/21 61/61/21 85/83/21
f 89/81/22 64/87/22 84/89/22
f 87/85/23 59/66/23 83/82/23
f 39/44/14 65/91/14 64/87/14
f 50/79/2 72/58/2 67/92/2
f 45/48/14 62/60/14 43/49/14
f 51/62/2 69/93/2 68/94/2
f 40/46/14 65/91/14 41/47/14
f 56/95/2 71/63/2 57/96/2
f 39/44/14 60/65/14 44/45/14
f 50/79/2 69/93/2 52/75/2
f 75/69/24 90/97/24 91/98/24
f 47/2/14 75/69/14 48/3/14
f 35/16/25 46/15/25 77/99/25
f 37/52/2 74/100/2 36/101/2
f 92/102/26 79/103/26 93/104/26
f 48/3/14 77/99/14 46/15/14
f 37/52/2 78/105/2 80/106/2
f 87/85/27 66/55/27 70/54/27
f 89/81/28 67/92/28 72/58/28
f 86/88/29 68/94/29 69/93/29
f 71/63/30 82/90/30 57/96/30
f 67/92/31 86/88/31 69/93/31
f 57/107/32 87/85/32 70/54/32
f 85/83/33 71/63/33 68/94/33
f 66/55/34 89/81/34 72/58/34
f 92/102/35 80/106/35 78/105/35
f 76/108/36 90/97/36 74/100/36
f 48/3/37 37/52/37 80/106/37
f 23/39/12 21/35/12 36/101/12
f 47/2/38 36/101/38 74/100/38
f 14/1/1 8/19/1 47/2/1
f 18/4/2 11/76/2 5/5/2
f 14/10/4 4/109/4 81/11/4
f 7/12/2 11/76/2 18/4/2
f 20/27/5 24/41/5 35/16/5
f 24/41/5 10/14/5 35/16/5
f 10/14/5 4/25/5 46/15/5
f 3/17/2 13/13/2 18/4/2
f 18/4/2 15/6/2 1/22/2
f 6/21/7 16/70/7 25/23/7
f 4/25/8 14/1/8 48/3/8
f 81/11/11 4/109/11 10/26/11
f 20/27/8 26/40/8 33/28/8
f 22/24/7 25/23/7 32/30/7
f 19/32/5 24/41/5 31/33/5
f 21/35/12 23/39/12 30/36/12
f 25/23/13 19/71/13 34/38/13
f 23/39/12 22/24/12 29/31/12
f 26/40/1 21/35/1 28/37/1
f 24/41/5 20/27/5 27/29/5
f 31/33/5 27/29/5 38/42/5
f 33/28/1 28/37/1 39/44/1
f 30/36/12 29/31/12 40/46/12
f 32/30/13 34/38/13 45/48/13
f 28/37/12 30/36/12 41/47/12
f 34/34/5 31/33/5 42/43/5
f 29/31/7 32/30/7 43/49/7
f 27/29/8 33/28/8 44/45/8
f 35/16/8 37/52/8 26/40/8
f 10/14/5 24/41/5 19/32/5
f 12/20/12 6/21/12 22/24/12
f 37/52/1 36/101/1 21/35/1
f 49/53/2 53/68/2 70/54/2
f 45/50/14 42/43/14 63/56/14
f 49/53/2 66/55/2 72/58/2
f 40/46/14 43/49/14 62/60/14
f 51/62/2 68/94/2 71/63/2
f 38/42/14 44/45/14 60/65/14
f 56/67/2 57/107/2 70/54/2
f 38/42/14 59/66/14 63/56/14
f 91/98/5 76/108/5 75/69/5
f 76/108/15 37/52/15 75/69/15
f 16/70/13 2/110/13 19/71/13
f 53/68/5 49/53/5 3/72/5
f 55/59/1 50/79/1 7/12/1
f 52/75/12 51/62/12 5/5/12
f 54/64/13 56/95/13 1/77/13
f 50/79/12 52/75/12 11/76/12
f 56/67/5 53/68/5 9/73/5
f 51/62/7 54/64/7 15/78/7
f 49/53/8 55/59/8 13/74/8
f 59/66/16 60/65/16 89/81/16
f 85/83/17 61/61/17 62/60/17
f 58/57/18 63/56/18 87/85/18
f 64/87/19 65/91/19 86/88/19
f 62/60/20 58/111/20 82/90/20
f 86/88/21 65/91/21 61/61/21
f 89/81/22 60/65/22 64/87/22
f 87/85/23 63/56/23 59/66/23
f 39/44/14 41/47/14 65/91/14
f 50/79/2 55/59/2 72/58/2
f 45/48/14 58/111/14 62/60/14
f 51/62/2 52/75/2 69/93/2
f 40/46/14 61/61/14 65/91/14
f 56/95/2 54/64/2 71/63/2
f 39/44/14 64/87/14 60/65/14
f 50/79/2 67/92/2 69/93/2
f 75/69/24 73/112/24 90/97/24
f 47/2/14 73/112/14 75/69/14
f 92/102/5 78/105/5 77/99/5
f 78/105/25 35/16/25 77/99/25
f 37/52/2 76/108/2 74/100/2
f 92/102/26 77/99/26 79/103/26
f 48/3/14 79/103/14 77/99/14
f 37/52/2 35/16/2 78/105/2
f 87/85/27 83/82/27 66/55/27
f 89/81/39 84/89/39 67/92/39
f 86/88/29 85/83/29 68/94/29
f 71/63/30 88/84/30 82/90/30
f 67/92/31 84/89/31 86/88/31
f 57/107/32 82/86/32 87/85/32
f 85/83/33 88/84/33 71/63/33
f 66/55/40 83/82/40 89/81/40
f 92/102/35 93/104/35 80/106/35
f 76/108/36 91/98/36 90/97/36
f 93/104/12 79/103/12 80/106/12
f 79/103/37 48/3/37 80/106/37
f 8/19/12 12/20/12 47/2/12
f 12/20/12 23/39/12 36/101/12
f 47/2/12 12/20/12 36/101/12
f 90/97/12 73/112/12 74/100/12
f 73/112/38 47/2/38 74/100/38
