{
	"asset":{
		"generator":"Khronos glTF Blender I/O v4.1.63",
		"version":"2.0"
	},
	"scene":0,
	"scenes":[
		{
			"name":"Scene",
			"nodes":[
				0
			]
		}
	],
	"nodes":[
		{
			"mesh":0,
			"name":"\u7403",
			"scale":[
				0.5,
				0.6585714221000671,
				0.5
			]
		}
	],
	"materials":[
		{
			"doubleSided":true,
			"name":"\u30de\u30c6\u30ea\u30a2\u30eb.002",
			"pbrMetallicRoughness":{
				"baseColorTexture":{
					"index":0
				},
				"metallicFactor":0,
				"roughnessFactor":0.5
			}
		},
		{
			"doubleSided":true,
			"name":"\u30de\u30c6\u30ea\u30a2\u30eb.001",
			"pbrMetallicRoughness":{
				"baseColorTexture":{
					"index":1
				},
				"metallicFactor":0,
				"roughnessFactor":0.5
			}
		},
		{
			"doubleSided":true,
			"name":"\u30de\u30c6\u30ea\u30a2\u30eb",
			"pbrMetallicRoughness":{
				"baseColorTexture":{
					"index":2
				},
				"metallicFactor":0,
				"roughnessFactor":0.5
			}
		}
	],
	"meshes":[
		{
			"name":"\u7403",
			"primitives":[
				{
					"attributes":{
						"POSITION":0,
						"NORMAL":1,
						"TEXCOORD_0":2
					},
					"indices":3,
					"material":0
				},
				{
					"attributes":{
						"POSITION":4,
						"NORMAL":5,
						"TEXCOORD_0":6
					},
					"indices":7,
					"material":1
				},
				{
					"attributes":{
						"POSITION":8,
						"NORMAL":9,
						"TEXCOORD_0":10
					},
					"indices":11,
					"material":2
				}
			]
		}
	],
	"textures":[
		{
			"sampler":0,
			"source":0
		},
		{
			"sampler":0,
			"source":0
		},
		{
			"sampler":0,
			"source":0
		}
	],
	"images":[
		{
			"mimeType":"image/png",
			"name":"player",
			"uri":"player.png"
		}
	],
	"accessors":[
		{
			"bufferView":0,
			"componentType":5126,
			"count":639,
			"max":[
				0.9999997019767761,
				1,
				0.9999993443489075
			],
			"min":[
				-0.9999990463256836,
				-1,
				-1
			],
			"type":"VEC3"
		},
		{
			"bufferView":1,
			"componentType":5126,
			"count":639,
			"type":"VEC3"
		},
		{
			"bufferView":2,
			"componentType":5126,
			"count":639,
			"type":"VEC2"
		},
		{
			"bufferView":3,
			"componentType":5123,
			"count":3024,
			"type":"SCALAR"
		},
		{
			"bufferView":4,
			"componentType":5126,
			"count":2266,
			"max":[
				0.8988375663757324,
				1.0794512033462524,
				-0.3408370018005371
			],
			"min":[
				-0.908474862575531,
				0.39832401275634766,
				-1.1251916885375977
			],
			"type":"VEC3"
		},
		{
			"bufferView":5,
			"componentType":5126,
			"count":2266,
			"type":"VEC3"
		},
		{
			"bufferView":6,
			"componentType":5126,
			"count":2266,
			"type":"VEC2"
		},
		{
			"bufferView":7,
			"componentType":5123,
			"count":4200,
			"type":"SCALAR"
		},
		{
			"bufferView":8,
			"componentType":5126,
			"count":262,
			"max":[
				1.0025980472564697,
				0.8880448341369629,
				1.1122716665267944
			],
			"min":[
				-1.0025980472564697,
				0.2332715094089508,
				-0.8881112337112427
			],
			"type":"VEC3"
		},
		{
			"bufferView":9,
			"componentType":5126,
			"count":262,
			"type":"VEC3"
		},
		{
			"bufferView":10,
			"componentType":5126,
			"count":262,
			"type":"VEC2"
		},
		{
			"bufferView":11,
			"componentType":5123,
			"count":756,
			"type":"SCALAR"
		}
	],
	"bufferViews":[
		{
			"buffer":0,
			"byteLength":7668,
			"byteOffset":0,
			"target":34962
		},
		{
			"buffer":0,
			"byteLength":7668,
			"byteOffset":7668,
			"target":34962
		},
		{
			"buffer":0,
			"byteLength":5112,
			"byteOffset":15336,
			"target":34962
		},
		{
			"buffer":0,
			"byteLength":6048,
			"byteOffset":20448,
			"target":34963
		},
		{
			"buffer":0,
			"byteLength":27192,
			"byteOffset":26496,
			"target":34962
		},
		{
			"buffer":0,
			"byteLength":27192,
			"byteOffset":53688,
			"target":34962
		},
		{
			"buffer":0,
			"byteLength":18128,
			"byteOffset":80880,
			"target":34962
		},
		{
			"buffer":0,
			"byteLength":8400,
			"byteOffset":99008,
			"target":34963
		},
		{
			"buffer":0,
			"byteLength":3144,
			"byteOffset":107408,
			"target":34962
		},
		{
			"buffer":0,
			"byteLength":3144,
			"byteOffset":110552,
			"target":34962
		},
		{
			"buffer":0,
			"byteLength":2096,
			"byteOffset":113696,
			"target":34962
		},
		{
			"buffer":0,
			"byteLength":1512,
			"byteOffset":115792,
			"target":34963
		}
	],
	"samplers":[
		{
			"magFilter":9729,
			"minFilter":9987
		}
	],
	"buffers":[
		{
			"byteLength":117304,
			"uri":"player.bin"
		}
	]
}
